<mxfile host="app.diagrams.net" modified="2024-07-06T01:21:21.629Z" agent="Mozilla/5.0 (Windows NT 10.0; Win64; x64) AppleWebKit/537.36 (KHTML, like Gecko) Chrome/126.0.0.0 Safari/537.36" version="24.6.4" etag="wf5myNW0WLGbP51OhDfa" type="github">
  <diagram name="第 1 页" id="CTr6-KsqR9PPQC19Ju8D">
    <mxGraphModel>
      <root>
        <mxCell id="0" />
        <mxCell id="1" parent="0" />
      </root>
    </mxGraphModel>
  </diagram>
</mxfile>
